<svg width="38" height="38" viewBox="0 0 38 38" fill="none" xmlns="http://www.w3.org/2000/svg">
<g filter="url(#filter0_d_150_2126)">
<circle cx="18.8682" cy="17.75" r="14.1338" fill="white"/>
</g>
<path d="M18.3028 24.3456H25.087M11.5186 24.3456H12.7808C13.1496 24.3456 13.334 24.3456 13.5075 24.3039C13.6613 24.267 13.8084 24.2061 13.9432 24.1234C14.0954 24.0302 14.2258 23.8998 14.4865 23.6391L23.9564 14.1692C24.5808 13.5447 24.5808 12.5323 23.9564 11.9078C23.3319 11.2833 22.3194 11.2833 21.6949 11.9078L12.2251 21.3777C11.9643 21.6384 11.8339 21.7688 11.7407 21.9209C11.6581 22.0558 11.5971 22.2029 11.5602 22.3567C11.5186 22.5302 11.5186 22.7146 11.5186 23.0833V24.3456Z" stroke="#4B5563" stroke-width="1.69606" stroke-linecap="round" stroke-linejoin="round"/>
<defs>
<filter id="filter0_d_150_2126" x="0.211547" y="0.22409" width="37.3132" height="37.3132" filterUnits="userSpaceOnUse" color-interpolation-filters="sRGB">
<feFlood flood-opacity="0" result="BackgroundImageFix"/>
<feColorMatrix in="SourceAlpha" type="matrix" values="0 0 0 0 0 0 0 0 0 0 0 0 0 0 0 0 0 0 127 0" result="hardAlpha"/>
<feOffset dy="1.13071"/>
<feGaussianBlur stdDeviation="2.26141"/>
<feComposite in2="hardAlpha" operator="out"/>
<feColorMatrix type="matrix" values="0 0 0 0 0.101961 0 0 0 0 0.0588235 0 0 0 0 0.00392157 0 0 0 0.12 0"/>
<feBlend mode="normal" in2="BackgroundImageFix" result="effect1_dropShadow_150_2126"/>
<feBlend mode="normal" in="SourceGraphic" in2="effect1_dropShadow_150_2126" result="shape"/>
</filter>
</defs>
</svg>
